<?xml version="1.0"?>
<svg xmlns="http://www.w3.org/2000/svg" xmlns:xlink="http://www.w3.org/1999/xlink" version="1.1" viewBox="0 0 224 224" width="24px" height="24px"><g fill="none" fill-rule="nonzero" stroke="none" stroke-width="1" stroke-linecap="butt" stroke-linejoin="miter" stroke-miterlimit="10" stroke-dasharray="" stroke-dashoffset="0" font-family="none" font-weight="none" font-size="none" text-anchor="none" style="mix-blend-mode: normal"><path d="M0,224v-224h224v224z" fill="none"/><g fill="#ffffff"><path d="M93.33333,18.66667l-9.33333,9.33333h-37.33333c-5.152,0 -9.33333,4.18133 -9.33333,9.33333c0,5.152 4.18133,9.33333 9.33333,9.33333h130.66667c5.152,0 9.33333,-4.18133 9.33333,-9.33333c0,-5.152 -4.18133,-9.33333 -9.33333,-9.33333h-37.33333l-9.33333,-9.33333zM46.66667,65.33333v121.33333c0,10.26667 8.4,18.66667 18.66667,18.66667h93.33333c10.26667,0 18.66667,-8.4 18.66667,-18.66667v-121.33333zM84,84c5.152,0 9.33333,4.18133 9.33333,9.33333v84c0,5.152 -4.18133,9.33333 -9.33333,9.33333c-5.152,0 -9.33333,-4.18133 -9.33333,-9.33333v-84c0,-5.152 4.18133,-9.33333 9.33333,-9.33333zM140,84c5.152,0 9.33333,4.18133 9.33333,9.33333v84c0,5.152 -4.18133,9.33333 -9.33333,9.33333c-5.152,0 -9.33333,-4.18133 -9.33333,-9.33333v-84c0,-5.152 4.18133,-9.33333 9.33333,-9.33333z"/></g></g></svg>
